<svg width="27" height="33" fill="none" xmlns="http://www.w3.org/2000/svg"><path d="M22.696 17.888a7.356 7.356 0 013.474-6.123 7.562 7.562 0 00-5.885-3.18c-2.476-.26-4.876 1.48-6.137 1.48-1.287 0-3.23-1.455-5.321-1.412a7.902 7.902 0 00-6.595 4.022C-.62 17.612 1.507 24.868 4.239 28.86c1.366 1.954 2.964 4.137 5.054 4.06 2.045-.085 2.809-1.304 5.277-1.304 2.446 0 3.163 1.304 5.295 1.254 2.195-.035 3.577-1.962 4.896-3.935A16.164 16.164 0 0027 24.374c-2.579-1.09-4.301-3.686-4.304-6.486zM18.668 5.96A7.184 7.184 0 0020.31.813a7.31 7.31 0 00-4.73 2.447 6.898 6.898 0 00-1.686 4.956 6.115 6.115 0 004.773-2.256z" fill="#B2B2B2"/></svg>