<svg width="202" height="49" fill="none" xmlns="http://www.w3.org/2000/svg"><path d="M66 40h5.6V29.08h1.04c.36.84.68 1.44 1.08 2.04L79.68 40h6.6l-7.84-11.44c4.24-.92 6.72-3.64 6.72-8.08 0-5.48-3.84-8.56-10.12-8.52L66 12v28zm5.6-15.96v-7h3.12c3.04 0 4.76 1.24 4.76 3.48 0 2.28-1.72 3.52-4.76 3.52H71.6zM87.631 40h5.4V28.6c0-3.6 2.04-5.16 4.32-5.16 2.68 0 4.48 1.56 4.48 5.16V40h5.4V27.28c0-5.24-3.44-8.56-7.92-8.56-3.12 0-5.16 1.12-6.28 3.36V10.8h-5.4V40zm23.722 8.36c4.88 0 7.48-2.84 9.24-7.04l9.2-22.12h-6.4l-4.04 11.88c-.36 1-.68 2.24-.88 3.32-.2-1.08-.52-2.32-.88-3.32l-4.04-11.88h-6.52l8.24 19.84-.28.88c-.6 1.84-1.92 3.16-4 3.16-.88 0-1.64-.08-2.44-.28l-.8 5.16c1.08.32 2.52.4 3.6.4zM139.261 40h2.96v-4.8h-2.24c-1.04 0-1.68-.6-1.68-1.92V23.8h4.4v-4.6h-4.4v-4.76l-5.4.56v4.2h-2.92v4.6h2.92v9.76c0 4.52 2.24 6.44 6.36 6.44zm5.245 0h5.4V28.6c0-3.6 2.04-5.16 4.32-5.16 2.68 0 4.48 1.56 4.48 5.16V40h5.4V27.28c0-5.24-3.44-8.56-7.92-8.56-3.12 0-5.16 1.12-6.28 3.36V10.8h-5.4V40zm22.617 0h5.4V28.6c0-3.6 2.04-5.16 4.32-5.16 2.68 0 4.48 1.56 4.48 5.16V40h5.4V28.6c0-4 1.72-5.16 4.24-5.16 2.44 0 4.16 1.56 4.16 5.16V40h5.4V27.28c0-5.24-3.44-8.56-7.92-8.56-3.64 0-5.64 1.4-7.04 3.92-1.36-2.52-3.84-3.92-6.76-3.92-3.2 0-5.28 1.2-6.36 3.52V19.2h-5.32V40z" fill="#121212"/><path fill-rule="evenodd" clip-rule="evenodd" d="M20.214 25.037C19.665 35.524 10.846 43.878 0 44V4c10.846.122 19.665 8.476 20.214 18.963C20.755 12.614 29.35 4.343 40 4.009v39.982c-10.649-.334-19.245-8.605-19.786-18.954z" fill="#FF6428"/></svg>