<svg width="123" height="30" fill="none" xmlns="http://www.w3.org/2000/svg"><path d="M41.2 24h3.36v-6.552h.624c.216.504.408.864.648 1.224L49.408 24h3.96l-4.704-6.864c2.544-.552 4.032-2.184 4.032-4.848 0-3.288-2.304-5.136-6.072-5.112L41.2 7.2V24zm3.36-9.576v-4.2h1.872c1.824 0 2.856.744 2.856 2.088 0 1.368-1.032 2.112-2.856 2.112H44.56zM54.179 24h3.24v-6.84c0-2.16 1.224-3.096 2.592-3.096 1.608 0 2.688.936 2.688 3.096V24h3.24v-7.632c0-3.144-2.064-5.136-4.752-5.136-1.872 0-3.096.672-3.768 2.016V6.48h-3.24V24zm14.233 5.016c2.928 0 4.488-1.704 5.544-4.224l5.52-13.272h-3.84l-2.424 7.128c-.216.6-.408 1.344-.528 1.992a13.489 13.489 0 00-.528-1.992l-2.424-7.128H65.82l4.944 11.904-.168.528c-.36 1.104-1.152 1.896-2.4 1.896-.528 0-.984-.048-1.464-.168l-.48 3.096c.648.192 1.512.24 2.16.24zM85.157 24h1.776v-2.88h-1.344c-.624 0-1.008-.36-1.008-1.152V14.28h2.64v-2.76h-2.64V8.664L81.34 9v2.52h-1.752v2.76h1.752v5.856c0 2.712 1.344 3.864 3.816 3.864zm3.147 0h3.24v-6.84c0-2.16 1.224-3.096 2.592-3.096 1.608 0 2.688.936 2.688 3.096V24h3.24v-7.632c0-3.144-2.064-5.136-4.752-5.136-1.872 0-3.096.672-3.768 2.016V6.48h-3.24V24zm13.57 0h3.24v-6.84c0-2.16 1.224-3.096 2.592-3.096 1.608 0 2.688.936 2.688 3.096V24h3.24v-6.84c0-2.4 1.032-3.096 2.544-3.096 1.464 0 2.496.936 2.496 3.096V24h3.24v-7.632c0-3.144-2.064-5.136-4.752-5.136-2.184 0-3.384.84-4.224 2.352-.816-1.512-2.304-2.352-4.056-2.352-1.92 0-3.168.72-3.816 2.112V11.52h-3.192V24z" fill="#121212"/><path fill-rule="evenodd" clip-rule="evenodd" d="M14.15 15.726C13.766 23.066 7.592 28.915 0 29V1c7.592.085 13.766 5.933 14.15 13.274C14.529 7.03 20.546 1.24 28 1.006v27.988c-7.454-.234-13.471-6.024-13.85-13.268z" fill="#FF6428"/></svg>