<svg width="42" height="37" fill="none" xmlns="http://www.w3.org/2000/svg"><path fill-rule="evenodd" clip-rule="evenodd" d="M21.167 30c.767 0 1.46.485 1.723 1.206a1.835 1.835 0 01-1.723 2.46 1.84 1.84 0 01-1.723-1.206A1.835 1.835 0 0121.167 30zm0 2.445a.612.612 0 10-.002-1.223.612.612 0 00.002 1.223z" fill="#000"/><path fill-rule="evenodd" clip-rule="evenodd" d="M41.963 25.47l-.842-2.331a.616.616 0 00-.315-.349l-.003-.002a.26.26 0 00-.02-.008l-.008-.003-.01-.004-.007-.003a.184.184 0 00-.014-.005l-.003-.001a.607.607 0 00-.408.004l-2.012.738-4.28-11.86-1.683-4.663a.618.618 0 00-.788-.37.623.623 0 00-.369.794l1.474 4.081-7.901 2.9h-.001l-4.817 1.768-3.227-8.939 4.24-1.556.912 2.526a.617.617 0 00.788.371l3.084-1.132a.622.622 0 00.398-.671v-.002a.575.575 0 00-.01-.048l-.001-.007-.001-.007a.629.629 0 00-.019-.06l-.911-2.526 4.239-1.556.912 2.526a.619.619 0 00.789.37.623.623 0 00.367-.794l-1.122-3.11a.62.62 0 00-.788-.37l-5.393 1.98h-.003l-.005.002-3.073 1.128-.006.002-.009.003-5.386 1.978a.62.62 0 00-.368.795l3.647 10.105 3.507 9.718a5.049 5.049 0 00-1.39-.223L12.244 2.04A3.073 3.073 0 008.3.187L.406 3.059l-.001.001-.038.016-.004.002-.006.002a.511.511 0 00-.044.023l-.004.002-.006.004a.525.525 0 00-.04.026l-.005.003-.006.005a.188.188 0 00-.009.006l-.028.023-.003.003-.007.005-.008.008a.415.415 0 00-.021.021l-.006.007-.007.006a.194.194 0 00-.008.009l-.02.024-.004.006-.004.005a.2.2 0 00-.01.011L.103 3.3l-.004.007-.005.008a.232.232 0 00-.02.035l-.004.007-.004.008a.273.273 0 00-.007.014l-.01.022-.003.01-.004.008a.23.23 0 00-.013.039l-.002.007-.003.01a.313.313 0 00-.005.016l-.004.022-.002.01-.002.008a.315.315 0 00-.006.04v.01l-.002.01A.29.29 0 000 3.634v.02a.29.29 0 00.002.04l.001.01.001.01a.318.318 0 00.006.042l.002.01.002.01.004.018a.339.339 0 00.007.023l.003.01.003.01.005.017v.001l.842 2.333.016.035.007.015.006.014c.004.009.007.017.012.025.007.013.016.025.024.038l.008.01a.516.516 0 00.058.073l.005.007.009.01a.592.592 0 00.063.055v-.001l.002.001.008.007a.6.6 0 00.158.083l.008.003a.622.622 0 00.09.023l.011.003a.595.595 0 00.146.005l.005-.001h.006a.655.655 0 00.042-.006l.01-.003.009-.001.005-.002a.47.47 0 00.028-.006.176.176 0 00.03-.01h.005l.005-.003c.004 0 .008-.002.011-.003h.002v-.001l7.317-2.661 8.676 24.038a5.207 5.207 0 00-1.448 5.663C16.947 35.632 18.882 37 21.03 37c.597 0 1.187-.105 1.753-.313a5.11 5.11 0 002.893-2.673 5.193 5.193 0 00.48-2.087l15.439-5.661.007-.003.005-.002.006-.003.013-.005.008-.003a.343.343 0 00.019-.009l.018-.01.005-.002a.48.48 0 00.031-.018l.02-.013.007-.005.023-.016.005-.005.005-.003c.012-.01.025-.02.036-.032l.006-.006a.661.661 0 00.036-.037l.007-.008a.666.666 0 00.03-.038l.002-.002.001-.003.03-.046.004-.008a.606.606 0 00.023-.044l.008-.018v-.003c.006-.011.01-.023.015-.034l.007-.027.003-.008a.336.336 0 00.016-.069l.001-.005v-.003l.001-.004a.625.625 0 00-.03-.303zM24.053 4.53l.7 1.943-1.926.707-.702-1.943 1.928-.707zM28.4 16.578l-.701-1.943-1.927.707.7 1.943 1.928-.707zm-8.024.745l4.24-1.556.911 2.526a.617.617 0 00.789.37l3.083-1.132a.621.621 0 00.368-.795l-.912-2.525 4.24-1.556 4.069 11.274L24.89 28.43a5.185 5.185 0 00-.763-.719l-3.75-10.39zM9.923 2.872a.32.32 0 01.007.018l8.78 24.328a5.138 5.138 0 011.156-.425l-8.78-24.327a1.843 1.843 0 00-2.365-1.113h-.002L1.404 4.015l.42 1.167L9.141 2.52h.002l.01-.004.009-.002.008-.003a.513.513 0 01.033-.01l.03-.006.006-.001.009-.002.015-.003a.597.597 0 01.05-.005h.01a.281.281 0 01.058 0h.002a.614.614 0 01.278.083l.004.002a.62.62 0 01.044.029l.005.003a.57.57 0 01.037.03l.004.004.006.004.029.029.002.001.005.005.006.007c.01.01.017.02.025.03l.002.001.005.007a.412.412 0 01.024.033l.004.007.006.007a.222.222 0 01.02.035l.004.008.005.008.008.016a.34.34 0 01.008.019l.004.01.005.01zM24.56 33.489a3.883 3.883 0 01-3.531 2.27 3.91 3.91 0 01-3.662-2.587c-.735-2.036.31-4.295 2.329-5.036.43-.158.879-.238 1.332-.238a3.91 3.91 0 013.662 2.587c.356.986.31 2.053-.13 3.004zm1.286-3.429c.07.197.128.396.175.596l14.574-5.344-.421-1.166L25.6 29.49c.093.184.175.374.246.57z" fill="#000"/></svg>