<svg width="32" height="32" fill="none" xmlns="http://www.w3.org/2000/svg"><path fill-rule="evenodd" clip-rule="evenodd" d="M2.473 4.913A6.328 6.328 0 018 1.667h12a1 1 0 011 1V16a3.674 3.674 0 01-3.666 3.667H16a1 1 0 110-2h1.334c.914 0 1.666-.753 1.666-1.667V3.667H8a4.328 4.328 0 00-3.78 2.22 1 1 0 11-1.747-.974z" fill="#A4A4A4"/><path fill-rule="evenodd" clip-rule="evenodd" d="M19 6.667a1 1 0 011-1h2.454c1.325 0 2.53.717 3.184 1.844l.004.006 2.28 3.987A1 1 0 0127.054 13h-1.72a.337.337 0 00-.334.333v4c0 .181.153.334.334.334h4a1 1 0 011 1v4c0 2.765-2.235 5-5 5H24a1 1 0 01-1-1c0-.915-.752-1.667-1.666-1.667-.915 0-1.667.752-1.667 1.667a1 1 0 01-1 1h-5.333a1 1 0 01-1-1c0-.915-.753-1.667-1.667-1.667S9 25.752 9 26.667a1 1 0 01-1 1H6.667c-2.766 0-5-2.235-5-5a1 1 0 112 0c0 1.66 1.339 3 3 3h.472A3.678 3.678 0 0110.667 23c1.672 0 3.09 1.13 3.528 2.667h3.611A3.678 3.678 0 0121.334 23c1.672 0 3.09 1.13 3.527 2.667h.473c1.66 0 3-1.34 3-3v-3h-3A2.337 2.337 0 0123 17.333v-4A2.337 2.337 0 0125.33 11l-1.421-2.485-.002-.002a1.688 1.688 0 00-1.453-.846H21V16a3.674 3.674 0 01-3.666 3.667H16a1 1 0 110-2h1.334c.914 0 1.666-.753 1.666-1.667V6.667z" fill="#A4A4A4"/><path fill-rule="evenodd" clip-rule="evenodd" d="M10.667 25a1.667 1.667 0 100 3.333 1.667 1.667 0 000-3.333zM7 26.667a3.667 3.667 0 117.333 0 3.667 3.667 0 01-7.333 0zM21.334 25a1.667 1.667 0 100 3.333 1.667 1.667 0 000-3.333zm-3.667 1.667a3.667 3.667 0 117.333 0 3.667 3.667 0 01-7.333 0zM25.333 13a.337.337 0 00-.333.333v4c0 .181.152.334.333.334h3v-1.402L26.473 13h-1.14zM23 13.333A2.337 2.337 0 0125.333 11h1.72a1 1 0 01.87.505l2.28 4a1 1 0 01.13.495v2.667a1 1 0 01-1 1h-4A2.337 2.337 0 0123 17.333v-4zM1.667 10.667a1 1 0 011-1h8a1 1 0 110 2h-8a1 1 0 01-1-1zm0 4a1 1 0 011-1H8a1 1 0 110 2H2.667a1 1 0 01-1-1zm0 4a1 1 0 011-1h2.667a1 1 0 110 2H2.667a1 1 0 01-1-1z" fill="#A4A4A4"/></svg>