<svg width="32" height="32" fill="none" xmlns="http://www.w3.org/2000/svg"><path fill-rule="evenodd" clip-rule="evenodd" d="M8.346 11.333a4.025 4.025 0 00-4.013 4.014v4.1A6.332 6.332 0 0113 25.334a6.237 6.237 0 01-.764 3h11.417a4.025 4.025 0 004.013-4.013v-.587h-1.533c-1.88 0-3.704-1.374-3.876-3.404a3.678 3.678 0 011.088-2.969 3.657 3.657 0 012.628-1.093h1.693v-.92a4.025 4.025 0 00-4.013-4.014H8.346zm-6.013 4.014a6.025 6.025 0 016.013-6.014h15.307a6.025 6.025 0 016.013 6.014v1.92a1 1 0 01-1 1h-2.693c-.479 0-.9.185-1.203.497l-.018.018c-.355.347-.553.84-.503 1.363v.012c.071.847.885 1.576 1.884 1.576h2.533a1 1 0 011 1v1.587a6.025 6.025 0 01-6.013 6.013h-13.48a1 1 0 01-.643-1.766c.324-.271.61-.61.833-.99l.012-.022c.397-.644.625-1.41.625-2.222a4.332 4.332 0 00-7.044-3.378 1 1 0 01-1.623-.782v-5.826z" fill="#A4A4A4"/><path fill-rule="evenodd" clip-rule="evenodd" d="M18.8 5.267a1.534 1.534 0 00-2.073-1.439l-10.587 4a2.798 2.798 0 00-1.807 2.625v6.094a1 1 0 11-2 0v-6.094c0-2 1.229-3.787 3.1-4.495l10.586-4c2.31-.875 4.78.839 4.78 3.309v5.066a1 1 0 11-2 0V5.267zm7.171 13c-.478 0-.9.186-1.203.498l-.018.017c-.355.347-.553.84-.503 1.363l.001.012c.07.847.885 1.577 1.883 1.577h2.59a.368.368 0 00.357-.36v-2.747a.368.368 0 00-.356-.36h-2.75zm-2.627-.907a3.658 3.658 0 012.627-1.093h2.809c1.271.046 2.298 1.074 2.298 2.36v2.747c0 1.285-1.027 2.314-2.298 2.359h-2.649c-1.879 0-3.703-1.374-3.876-3.404a3.678 3.678 0 011.089-2.969z" fill="#A4A4A4"/><path fill-rule="evenodd" clip-rule="evenodd" d="M8.333 16a1 1 0 011-1h9.333a1 1 0 110 2H9.333a1 1 0 01-1-1zm-1.667 5a4.337 4.337 0 00-2.71.955l-.001.002a4.294 4.294 0 00-1.622 3.376c0 .813.227 1.578.625 2.222l.008.014a4.293 4.293 0 003.7 2.098 4.207 4.207 0 002.864-1.1c.324-.271.61-.61.833-.99l.012-.022c.397-.644.625-1.41.625-2.222A4.332 4.332 0 006.666 21zm-3.955-.61A6.332 6.332 0 0113 25.334a6.245 6.245 0 01-.917 3.262 5.795 5.795 0 01-1.255 1.493 6.207 6.207 0 01-4.163 1.579 6.293 6.293 0 01-5.415-3.069 6.228 6.228 0 01-.918-3.265 6.29 6.29 0 012.378-4.942z" fill="#A4A4A4"/><path fill-rule="evenodd" clip-rule="evenodd" d="M9.482 23.347a1 1 0 01-.055 1.413l-2.84 2.627A1 1 0 015.2 27.36l-1.32-1.32a1 1 0 111.414-1.414l.64.64 2.134-1.974a1 1 0 011.413.055z" fill="#A4A4A4"/></svg>